<?xml version="1.0" encoding="utf-8"?>
<!-- Generator: Adobe Illustrator 20.1.0, SVG Export Plug-In . SVG Version: 6.00 Build 0)  -->
<svg version="1.1" id="Layer_1" xmlns="http://www.w3.org/2000/svg" xmlns:xlink="http://www.w3.org/1999/xlink" x="0px" y="0px"
	 viewBox="0 0 800 600" style="enable-background:new 0 0 800 600;" xml:space="preserve">
<style type="text/css">
	.st0{fill-rule:evenodd;clip-rule:evenodd;}
</style>
<path class="st0" d="M747.3,139.2c-2.4-0.4-3,1.7-4.6,0c0.6-2.6-1.1-2.9-0.8-5.3c-2,0-4.4,0.3-5.3-0.8c-1.3-8.1-4.5-14.3-6.1-22.1
	c-3,0-4.4-1.7-6.9-2.3c-1.9,1.7-3.3,3.8-6.1,4.6c-2.2-0.1-1-3.6-3.8-3.1c-3,7.4-8.4,19-4.6,28.3c-2,3.1-4,6.2-3.8,11.5
	c-2.7-0.6-3.7,1.7-5.3,0c-0.8,2.3-0.6,5.5-3.1,6.1c-7.9,1.4-16.8,5-25.2,6.9c-4,0.9-8.3,0.2-11.5,2.3c-3.7,2.4-5,7.8-7.6,11.5
	c-1.8,2.5-5.6,2.9-4.6,6.9c3.5,1.2,2.9,5.3,3.1,7.6c-7.2,10.4-20.6,5.3-32.1,10.7c0.2,3.6,2.5,5.1,3.8,7.6
	c-9.8,13.3-24,22.3-39.7,29.8c-2.4-3.2-10.1-1.1-11.5-5.3c4-3.8,3.2-14.2,9.2-13.7c-0.7-10-2-19.3-8.4-23.7c-5,0.6-4.3,6.9-8.4,8.4
	c-3,0.5-2.2-2.9-2.3-5.3c8.8-2.3,2.9-15.8,4.6-19.9c-2,0.2-2-1.6-2.3-3.1c-8.2,0-15.3-9.2-19.9-0.8c-0.7,2.5,2.5,1,2.3,3.1
	c-2.6-0.6-3.2,0.8-4.6,1.5c-0.6,4.6,2.1,7.8-2.3,8.4c-1.2-3.7,3.2-6.5,0-7.6c-7,7.7-7.4,15.8-8.4,29c8.5,8.2,6,28.8-5.3,32.1
	c-16-14.4-7-44-3.1-60.3c-3.1,3.8-6.3,11.5-9.9,12.2c2.6-7.4,7.2-12.6,9.2-20.6c6.5,1.7,10.3-3.3,18.3-5.3
	c6.8,1.1,12.8-0.1,17.6-0.8c-3.5-0.6-4.4-3.8-3.8-8.4c-4.1,0.1-7.1,3.2-10.7,1.5c0-1.5,0-3.1,0-4.6c-11.1,1.2-16.9,8.4-26.7,6.9
	c-1.3-6.2-10-7.5-12.2-4.6c1.2-4.9,5.2-7.1,7.6-10.7c-7.5,0.1-10.2,5.1-13.7,9.2c-5.2,2.9-11.3,5-16,8.4c-0.8-2.9-4.5,0-5.3-1.5
	c0.7-1.6,2.3-2.3,2.3-4.6c-3.9-1.4-8.9,6.2-14.5,3.1c5.6-3.1,7.8-10,13-13.7c4.3-3.1,10.6-2.5,13.7-7.6c-4.5-0.9-11.7-0.3-14.5-3.1
	c-3.9,4.1-11.9,3.6-13-1.5c-6.6,2-12.1-7.3-18.3-1.5c-3.2-1.2-5.5-3.1-9.9-3.1c-3.3-2.3-0.2-11-6.1-10.7c-1.8,0.8,0.4,5.5-1.5,6.1
	c-113.1,2.1-208.6-17.5-294.8-39.7c3.6,5.6,0.3,12.4,1.5,16.8c-3.6-2.9-1.8-5.3-1.5-7.6c-3.1-0.5-1.9,3.2-4.6,3.1
	c-7.9-1.3-12.2-6.2-18.3-9.2c-0.6,7.1-1.2,19,2.3,24.4c-1.3-0.1-2.4,0.2-3.1,0.8c-0.8,2.9,1.9,2.2,1.5,4.6c-3.2,2-4.3,5.9-0.8,7.6
	c-2.5-0.7-1.6,2-3.1,2.3c-5.3,17.4-11.5,33.8-21.4,46.6c0.2,4.5-0.8,7.8-1.5,11.5c4.6,11.8-5.6,21.1-9.2,29.8
	c8.6,5.5,0.6,15.5,1.5,22.9c0.4,3.2,5.9,8,6.1,13c0.2,4.9,0.7,6.4,3.8,9.2c-4,6.5-0.1,15,4.6,17.6c-0.4,2.6-3.5,2.6-3.8,5.3
	c0.3,10,10,18,10.7,26.7c0.3,4-3.7,6.9-0.8,10.7c13.4-0.4,14.8,11.2,24.4,14.5c0.5,2.4-1.4,2.4,0,3.8c8.9,2.1,12.1,9.8,11.5,21.4
	c9.4,3.4,22.2,3.2,32.8,5.3c0,1.5-2.1,1-1.5,3.1c12,5.9,23.3,14.1,34.4,20.6c14.2,8.4,31.1,10.4,52.7,13c0.4-2.7,0.3-5.8,1.5-7.6
	c7.5,1.2,14.8,2.5,22.9,3.1c5.3,6.7,9.3,14.6,17.6,18.3c4.3,4.6,2.9,9.6,4.6,16c2.2,8.5,12.9,10.5,19.9,15.3
	c5.5-3.5,4.8-13.1,13-13.7c16.2,1.9,24.1,12.1,26.7,27.5c5.5,2.9,6.9,9.9,12.2,13c-3.4,19.2,18.3,23.9,31.3,26.7
	c-2.4-10.2-1.9-20.2-0.8-31.3c12.9-8.8,28.6-14.7,39-26c10.9-9.1,30-2.4,41.2-2.3c-0.4-4.3-5.1-0.1-6.1-3.1c4.8-4.4,8.6,3,13,3.8
	c0.2,1.4-0.9,1.7-0.8,3.1c2.7,1.2,4.7,2.9,8.4,3.1c1.9-1.4,2.9-3.7,6.1-3.8c2.5,1.5-1.9,3.3,0,3.8c6.1-1.9,1.4-5.8,6.1-7.6
	c1.2,3.6,11.4,8.5,12.2,3.1c-2.1-2.9-8.5-1.7-9.9-5.3c2.4-2,5.4-2.7,3.8-8.4c-3.4-0.3-1.9,4.2-6.1,3.1c3.4-9.1,11.4-7.9,22.1-8.4
	c1.5-1.3,0.3-5.3,3.1-5.3c1.6,1.3,3.7,5.6,0.8,6.9c12.6-4.1,31-7.5,37.4,4.6c6.8-0.6,12.9-3.4,13.7-7.6
	c13.1-1.4,12.2,11.2,22.9,12.2c6.4,5.2-0.9,19.4,5.3,24.4c1.9-2.1-0.6-5.1,0-5.3c1.1,0.1,2.8-0.3,3.1,0.8c0.3,3.6-2.9,3.7-3.1,6.9
	c4,4.4,7.2,9.6,9.9,15.3c2.2,0.6,2-1.1,3.8-0.8c1.6,2.5,2.4,5.8,3.8,8.4c6.7-1.5,9.6,5.8,11.5,11.5c2.9-0.9,7.9-3.8,9.9-3.1
	c-1,4.6-8.7,6.6-8.4,9.9c5.3-3.8,10.2-8.1,11.5-16c-2.7-1.2-0.5,2.6-2.3,2.3c5.8-20-5.3-33.7-12.2-45.8c0-1.5,2.1-1,1.5-3.1
	c-11.6-10.4-23.8-31.1-16.8-51.2c1.6-4.7,6.8-7.3,6.9-12.2c7.3-2.4,9.2-10.2,15.3-13.7c-0.4-10.1,5.1-14.3,13.7-15.3
	c-0.7-15.1,18.6-12.2,19.1-22.1c-0.6,1.3-6.6,2.3-7.6,0c3.2,2.5,5.3-4.1,2.3-5.3c4.9,1.4,10.2-0.8,10.7-6.1
	c-1.2-2.1-4.7,1.8-6.1-0.8c2.7,0.2,4.6-0.5,5.3-2.3l-0.4-1.1l1.1,0.4c-3.2-4.9-5.8-10.5-8.4-16c-1.7,0-3.7-0.2-4.8,0.4
	c3-2.5-3.5-5.5-2-7.3c0.8,0,0.9,0.6,1.5,0.8c-0.4-5.7-2.1-10.1-6.1-12.2c2.1,0.5,1.5-1.6,2.3-2.3c-5.3-3.4-6.1-17.6-0.8-18.3
	c-3.5,3.2,2.2,7-1.5,10.7c3.4,0,1.3,1.1,1.5,5.3c4.1,0.3,3.2,5.4,6.1,6.9c1.1-2.7-2.5-4.6-0.8-5.3c8,2.8-1.5,14,4.6,18.3
	c1.5-9.9,8.6-19.1,4.6-29.8c-5.4-1.5-6.1-7.6-9.2-11.5c2.1,3,5,5.2,9.9,5.3c0.3,1.8-1.4,1.7-0.8,3.8c5.7-5.4,10.3-15.4,7.6-26.7
	c-0.9-1.9-2.9,1.6-3.8-0.8c1.6-0.2,1.5-2.1,3.1-2.3l-0.4-2.1l1.1-1.8c5.4-10.9,21.1-11.5,30.5-18.3c1-2.3-0.4-3.8,3.1-4.6
	c0.4,2.5-0.2,3.8-1.5,4.6c3.5-1.9,5.1-5.6,9.9-6.1c-0.1-4-1.2-7-5.3-6.9c0.4,2.4,3.9,1.7,3.8,4.6c-6.6,5.9-8-7.1-13-5.3
	c0.5-6.7-0.4-16,3.1-26c4.3,0.7,7.1-3.9,10.7-6.1c0.6-2.6-0.8-7.2,0-7.6c0.9,1.1,3.2,0.9,3.1,3.1c-1.8,1.2-2.8,1.2-1.5,3.8
	c3.8-0.9,2.1-6.2,4.6-8.4c-0.2,2-0.3,3.8,2.3,3.1c1.4-4.5-0.9-2.1-1.5-4.6C743.1,156.5,754.4,144.9,747.3,139.2z"/>
</svg>
